Coordinates
version=1
nRows=10
nColumns=34
inDegrees=yes

Units are S.I. units (second, meters, Newtons, ...)
Angles are in degrees.

endheader
time	pelvis_tilt	pelvis_list	pelvis_rotation	pelvis_tx	pelvis_ty	pelvis_tz	hip_flexion_r	hip_adduction_r	hip_rotation_r	knee_angle_r	ankle_angle_r	subtalar_angle_r	mtp_angle_r	hip_flexion_l	hip_adduction_l	hip_rotation_l	knee_angle_l	socket_flexion	socket_adduction	socket_rotation	socket_tx	socket_ty	socket_tz	pros_ankle_rx	pros_ankle_ry	pros_ankle_rz	pros_ankle_tx	pros_ankle_ty	pros_ankle_tz	foot_flex	lumbar_extension	lumbar_bending	lumbar_rotation
      0.30000000	      0.99049083	     -4.96723669	     -4.06898454	     -0.33714558	      1.04930112	      0.32457227	      8.53616278	      0.49447896	     -6.66439506	    -58.84266895	      3.62217922	     14.53198530	     19.00648305	      8.37236604	     -3.27393758	    -13.51984375	    -25.66733644	     -5.89698971	     -0.98042691	     11.29691889	      0.00000000	     -0.01274516	      0.00000000	      0.00000000	      0.00000000	      0.00000000	      0.00000000	      0.00000000	      0.00000000	      4.99502355	    -20.18696388	     -4.01176828	     -0.42122780
      0.30416667	      1.05265185	     -5.04628515	     -3.98854534	     -0.33179730	      1.05011384	      0.32438092	      8.97780228	      0.60597484	     -6.74703247	    -58.56265881	      4.42274393	     14.28024478	     18.95687612	      7.82418658	     -3.29912229	    -13.51912279	    -25.35410000	     -5.85778918	     -0.97276045	     11.37489215	      0.00000000	     -0.01264445	      0.00000000	      0.00000000	      0.00000000	      0.00000000	      0.00000000	      0.00000000	      0.00000000	      5.10658343	    -20.21475345	     -3.84089910	     -0.51981063
      0.30833333	      1.08037128	     -5.07483310	     -3.94942588	     -0.32661126	      1.05082693	      0.32413434	      9.48591576	      0.62600960	     -6.83043803	    -58.23757247	      4.58808168	     14.22905602	     18.94946932	      7.41817450	     -3.27439521	    -13.51735676	    -25.32094847	     -6.00864983	     -1.00653219	     11.36213942	      0.00000000	     -0.01223977	      0.00000000	      0.00000000	      0.00000000	      0.00000000	      0.00000000	      0.00000000	      0.00000000	      5.18645247	    -20.26274313	     -3.81708554	     -0.53394666
      0.31250000	      1.13312343	     -5.22734436	     -3.82405608	     -0.32115648	      1.05156422	      0.32390950	      9.88084505	      0.82794526	     -6.96359075	    -57.85740650	      5.78164388	     13.88320028	     18.90134963	      6.83452157	     -3.37876514	    -13.55568508	    -24.87006080	     -5.85400957	     -0.99608089	     11.50618270	      0.00000000	     -0.01236309	      0.00000000	      0.00000000	      0.00000000	      0.00000000	      0.00000000	      0.00000000	      0.00000000	      5.33578594	    -20.26200689	     -3.50264997	     -0.65272602
      0.31666667	      1.16077284	     -5.24476288	     -3.80177856	     -0.31607145	      1.05222620	      0.32373662	     10.39148094	      0.84521471	     -7.03576074	    -57.49376851	      5.91192561	     13.84532111	     18.89110963	      6.43871803	     -3.35244453	    -13.54600454	    -24.84805776	     -6.00308870	     -1.03500404	     11.49306888	      0.00000000	     -0.01191940	      0.00000000	      0.00000000	      0.00000000	      0.00000000	      0.00000000	      0.00000000	      0.00000000	      5.41293537	    -20.31720245	     -3.48297359	     -0.66407975
      0.32083333	      1.18775212	     -5.42609615	     -3.66708723	     -0.31062754	      1.05289720	      0.32348240	     10.77441124	      1.09304411	     -7.16081282	    -56.99461726	      6.98255792	     13.55573422	     18.82828522	      5.89372800	     -3.49455734	    -13.58287719	    -24.41290822	     -5.82831269	     -1.01396885	     11.65815345	      0.00000000	     -0.01208494	      0.00000000	      0.00000000	      0.00000000	      0.00000000	      0.00000000	      0.00000000	      0.00000000	      5.59521205	    -20.31244261	     -3.15342227	     -0.75938353
      0.32500000	      1.21951623	     -5.44184673	     -3.65941692	     -0.30564446	      1.05348164	      0.32331777	     11.28394469	      1.10887434	     -7.23397185	    -56.59103596	      7.09756149	     13.52435462	     18.81406398	      5.50705198	     -3.46237957	    -13.58647233	    -24.39717362	     -5.96824309	     -1.05864554	     11.62718932	      0.00000000	     -0.01167885	      0.00000000	      0.00000000	      0.00000000	      0.00000000	      0.00000000	      0.00000000	      0.00000000	      5.65602951	    -20.37271959	     -3.13143518	     -0.77061131
      0.32916667	      1.73410391	     -5.52625290	     -3.74058498	     -0.30003206	      1.05527483	      0.32331900	     11.06454503	      1.28235712	     -7.06807158	    -55.89116182	      8.09907727	     13.29230195	     17.11203113	      3.77971851	     -3.28966993	    -13.56162183	    -22.09811220	     -4.68411823	     -0.68916893	     11.39623515	      0.00000000	     -0.01262178	      0.00000000	      0.00000000	      0.00000000	      0.00000000	      0.00000000	      0.00000000	      0.00000000	      5.80855990	    -20.97996220	     -2.98948529	     -0.72592334
      0.33333333	      1.71823484	     -5.55696480	     -3.67601091	     -0.29492832	      1.05577101	      0.32310861	     11.54833905	      1.32673579	     -7.19188879	    -55.34439383	      8.36255239	     13.26315037	     17.10169490	      3.45254357	     -3.28046027	    -13.58861865	    -22.07147472	     -4.77346874	     -0.73102577	     11.38853063	      0.00000000	     -0.01221910	      0.00000000	      0.00000000	      0.00000000	      0.00000000	      0.00000000	      0.00000000	      0.00000000	      5.90391714	    -21.01735591	     -2.92115807	     -0.74593991
      0.33750000	      1.70115239	     -5.62999187	     -3.59278695	     -0.28979420	      1.05628868	      0.32296820	     12.00758571	      1.44128766	     -7.31297035	    -54.74683652	      8.75572308	     13.21828623	     17.09049731	      3.10850852	     -3.33107882	    -13.60252261	    -21.99916138	     -4.81913213	     -0.76670309	     11.43011601	      0.00000000	     -0.01187865	      0.00000000	      0.00000000	      0.00000000	      0.00000000	      0.00000000	      0.00000000	      0.00000000	      6.02363689	    -21.03361658	     -2.79193732	     -0.78286418
